<?xml version="1.0" standalone="no"?>
<!DOCTYPE svg PUBLIC "-//W3C//DTD SVG 20010904//EN"
 "http://www.w3.org/TR/2001/REC-SVG-20010904/DTD/svg10.dtd">
<svg version="1.0" xmlns="http://www.w3.org/2000/svg"
 width="1280.000000pt" height="853.000000pt" viewBox="0 0 1280.000000 853.000000"
 preserveAspectRatio="xMidYMid meet">
<metadata>
Created by potrace 1.15, written by Peter Selinger 2001-2017
</metadata>
<g transform="translate(0.000000,853.000000) scale(0.100000,-0.100000)"
fill="#000000" stroke="none">
<path d="M4077 7682 c-10 -2 -22 -13 -26 -25 -8 -20 -4 -157 5 -166 2 -2 10 2
19 9 13 11 15 8 15 -16 0 -35 -30 -124 -42 -124 -5 0 -4 -8 1 -18 12 -22 1
-77 -35 -177 -14 -38 -28 -79 -31 -90 -2 -11 -9 -29 -13 -40 -13 -29 -93 -287
-95 -305 -4 -33 -18 -70 -24 -66 -4 3 -7 -10 -8 -28 -1 -19 -8 -49 -16 -67 -8
-19 -21 -56 -27 -84 -7 -27 -17 -56 -23 -62 -5 -7 -6 -13 -2 -13 4 0 2 -7 -5
-15 -7 -8 -9 -15 -5 -15 4 0 3 -6 -2 -12 -5 -7 -17 -40 -27 -73 -10 -33 -25
-80 -33 -105 -9 -25 -18 -58 -21 -75 -2 -16 -11 -39 -18 -50 -8 -11 -14 -28
-14 -37 0 -21 -45 -42 -75 -34 -22 5 -21 5 34 -34 11 -7 20 -23 20 -35 -1 -11
2 -76 6 -145 4 -74 3 -142 -3 -167 -7 -29 -6 -45 1 -52 8 -8 8 -11 -1 -11 -7
0 -11 -3 -11 -7 3 -20 -2 -33 -14 -33 -7 0 -25 -6 -40 -12 -22 -11 -27 -20
-27 -53 -1 -47 -19 -75 -48 -75 -11 0 -24 -4 -27 -10 -3 -5 -2 -10 3 -10 4 0
25 -15 45 -33 34 -30 36 -36 34 -84 -1 -40 -6 -53 -19 -57 -27 -6 -22 -23 9
-31 17 -4 23 -9 15 -14 -7 -4 -12 -18 -11 -32 4 -84 -4 -300 -12 -305 -5 -3
-9 -21 -9 -40 0 -19 4 -33 8 -30 4 2 9 -11 10 -30 2 -19 -2 -34 -8 -34 -13 0
-13 -27 1 -32 7 -2 8 -75 0 -253 -6 -138 -11 -339 -13 -447 -1 -109 -4 -198
-7 -198 -3 0 -7 -156 -8 -346 -1 -190 -6 -350 -10 -357 -5 -7 -8 -23 -8 -37 0
-22 -4 -25 -30 -23 -16 1 -57 3 -90 5 l-60 3 -6 100 c-5 95 -5 97 -7 27 l-2
-74 -32 4 c-31 3 -33 1 -36 -29 -2 -18 -8 -33 -14 -33 -6 0 -8 9 -5 21 5 20 3
21 -101 15 -80 -4 -119 -2 -160 10 -40 12 -74 14 -132 9 -70 -6 -77 -9 -73
-26 4 -16 0 -19 -27 -19 -32 0 -33 0 -27 40 4 30 2 40 -9 40 -11 0 -14 50 -16
288 l-3 287 -32 3 -33 3 0 -310 0 -311 -49 0 c-59 0 -81 -7 -81 -26 0 -11 -16
-14 -65 -14 l-65 0 0 102 c0 56 -2 99 -5 96 -6 -5 -13 -88 -14 -160 -1 -33 -4
-38 -23 -38 -16 0 -28 11 -40 36 -16 31 -18 74 -18 429 l0 395 -30 0 -30 0 -1
-337 c-2 -369 -2 -372 -13 -423 -11 -46 -26 -66 -38 -48 -6 10 -10 7 -14 -9
-9 -33 -63 -28 -65 6 0 10 -2 11 -6 4 -6 -16 -45 -17 -60 -2 -8 8 -22 5 -51
-10 -47 -24 -84 -28 -76 -8 3 10 -8 14 -41 16 -39 2 -46 -1 -43 -15 3 -15 -6
-17 -67 -15 -82 3 -88 6 -75 32 9 15 7 19 -5 19 -9 0 -18 7 -21 15 -4 10 -20
15 -49 15 l-43 0 5 -35 c4 -30 1 -36 -19 -44 -16 -6 -40 -5 -66 2 l-42 11 -2
351 -3 350 -32 3 -33 3 0 -360 0 -361 -54 0 -54 0 0 91 c0 49 -3 93 -6 96 -3
4 -6 -12 -6 -35 0 -40 -1 -42 -31 -42 -23 0 -30 -4 -28 -17 1 -10 1 -30 0 -45
-1 -27 -3 -28 -55 -28 -30 0 -58 -4 -61 -10 -3 -6 -33 -10 -66 -10 l-59 0 0
110 0 110 -35 0 -35 0 0 -109 0 -109 -107 3 c-192 4 -183 3 -183 26 0 11 5 30
11 41 11 20 10 20 -93 13 -56 -4 -105 -9 -107 -11 -2 -2 1 -10 8 -18 9 -11 9
-17 -2 -28 -7 -7 -12 -19 -9 -26 3 -9 -4 -12 -20 -9 -44 7 -58 19 -58 47 0 22
-5 29 -27 33 -36 7 -92 -25 -94 -55 0 -7 -6 3 -12 22 l-11 35 -5 -35 c-6 -33
-8 -35 -46 -35 -43 0 -40 -6 -44 78 -1 9 -5 17 -11 17 -7 0 -10 -522 -10
-1545 l0 -1545 6400 0 6400 0 0 1479 c0 1305 -2 1480 -15 1485 -8 3 -15 1 -15
-3 0 -5 -9 -7 -20 -4 -11 3 -20 9 -20 14 0 5 -5 9 -11 9 -5 0 -7 -5 -3 -11 4
-7 -7 -1 -24 11 -17 12 -37 20 -44 17 -8 -2 -22 1 -32 9 -11 7 -23 11 -28 8
-12 -8 -96 35 -107 54 -9 16 -10 16 -16 0 -5 -12 -18 -18 -39 -18 -28 -1 -29
-2 -13 -14 11 -9 14 -17 8 -20 -6 -4 -16 2 -23 14 -10 15 -23 20 -54 20 -33 0
-43 4 -47 20 -7 29 -34 25 -45 -7 -6 -16 -11 -22 -11 -15 -1 6 -10 12 -21 12
-13 0 -20 7 -20 19 0 17 -11 20 -110 26 l-110 7 0 354 0 354 -35 0 -35 0 0
-354 0 -355 -27 -4 -28 -4 28 -2 c27 -1 37 -23 17 -36 -5 -3 -10 -1 -10 4 0 6
-18 11 -40 11 l-40 0 0 266 0 265 -32 -3 -33 -3 -3 -265 c-1 -146 -4 -269 -6
-275 -3 -8 -91 -13 -91 -5 0 2 -69 6 -233 14 -85 3 -111 2 -105 -7 5 -9 3 -9
-8 0 -20 16 -85 27 -93 15 -3 -5 -18 -7 -33 -5 -27 5 -122 12 -170 13 -22 0
-23 1 -25 188 l-3 187 -376 3 -377 2 -6 23 c-3 12 -6 82 -6 155 l0 132 -75 0
-75 0 0 -45 c0 -45 0 -45 -35 -45 l-35 0 0 50 0 50 -80 0 -80 0 0 -50 c0 -49
-1 -50 -30 -50 -30 0 -30 1 -30 55 l0 56 -77 -3 -78 -3 -3 -52 c-3 -45 -6 -53
-23 -53 -16 0 -19 7 -19 55 l0 55 -85 0 -85 0 0 -56 c0 -54 0 -55 -27 -52 -26
3 -28 7 -31 56 l-3 52 -75 0 -74 0 0 -170 0 -170 -57 0 c-32 -1 -187 -1 -345
-1 l-288 0 -1 -127 c-1 -70 -3 -119 -6 -109 -10 38 -28 7 -38 -65 -13 -99 -34
-130 -83 -126 -35 3 -37 5 -40 43 -4 59 -22 69 -22 13 0 -57 -3 -58 -163 -57
-107 0 -117 2 -117 19 0 14 -7 18 -31 16 -29 -1 -32 3 -53 59 -50 136 -178
267 -310 317 -60 23 -64 28 -61 79 1 22 -1 42 -6 45 -5 3 -9 30 -9 60 0 44 5
62 26 89 32 43 30 88 -4 93 -31 5 -52 -15 -52 -47 0 -15 -7 -36 -15 -47 -13
-17 -14 5 -15 199 l0 217 -35 0 -35 0 0 -182 c0 -166 -2 -186 -20 -213 -14
-22 -20 -47 -20 -91 0 -39 -8 -79 -21 -112 -20 -49 -22 -50 -84 -66 -35 -9
-66 -16 -69 -16 -2 0 -18 24 -34 53 -43 75 -140 168 -223 212 -38 20 -69 43
-69 51 0 7 -4 14 -9 14 -5 0 -12 10 -15 23 -3 12 -21 31 -39 42 -39 25 -47 72
-23 142 16 47 14 63 -8 63 -8 0 -16 9 -19 21 -3 11 -15 23 -26 26 -19 5 -21
13 -21 94 l0 89 -35 0 -35 0 0 -213 c0 -170 -3 -217 -14 -233 -12 -15 -18 -17
-33 -8 -28 17 -43 55 -43 112 l0 53 -30 -21 c-18 -13 -27 -26 -23 -35 3 -8 0
-15 -6 -15 -6 0 -11 4 -11 10 0 6 -9 6 -23 -1 -21 -10 -23 -16 -19 -59 2 -27
-1 -71 -8 -99 -10 -43 -18 -54 -58 -80 -61 -39 -126 -103 -165 -164 -27 -41
-35 -48 -57 -44 -45 10 -80 26 -81 39 -5 69 -3 100 9 142 12 40 12 59 3 101
-26 116 -29 121 -71 138 l-40 15 0 -67 c0 -54 -4 -74 -21 -95 -11 -14 -25 -24
-30 -21 -5 4 -9 87 -9 186 l0 179 -35 0 c-35 0 -35 0 -35 -43 0 -32 -4 -44
-15 -44 -8 0 -15 4 -15 8 0 6 -10 6 -40 -1 -3 0 4 -7 15 -16 14 -10 16 -17 8
-22 -12 -7 -30 -87 -24 -107 1 -5 3 -21 4 -35 2 -18 9 -26 25 -28 16 -3 21 -9
18 -20 -2 -9 -8 -54 -11 -100 -7 -76 -9 -84 -32 -93 -13 -5 -39 -9 -57 -9 -96
0 -231 -76 -296 -168 -43 -59 -80 -161 -80 -218 l0 -34 -183 0 c-197 0 -207 2
-207 52 0 15 -4 28 -9 28 -6 0 -10 8 -10 18 -1 31 -18 127 -25 144 -17 38 -56
-15 -56 -75 0 -18 -6 -44 -14 -59 -8 -15 -17 -40 -21 -57 -4 -17 -14 -35 -23
-39 -13 -6 -133 -8 -173 -3 -11 2 2 1505 13 1518 6 7 18 13 28 13 16 0 30 19
30 41 0 5 -13 9 -29 9 -30 0 -54 21 -33 28 7 2 12 8 12 13 0 6 -6 7 -12 3 -10
-6 -10 -5 -1 8 7 8 10 18 6 21 -10 11 -12 216 -2 223 5 3 5 12 0 23 -7 13 -5
22 10 34 25 22 24 37 -2 37 -20 0 -21 1 -5 25 9 14 12 25 6 25 -5 0 -10 15
-10 33 0 28 7 37 53 67 l52 35 -38 3 c-44 4 -60 31 -55 92 3 35 3 35 -41 38
l-43 3 3 219 4 219 35 30 35 30 -31 1 c-17 0 -36 6 -42 13 -6 6 -27 68 -47
137 -20 69 -57 195 -82 280 -25 85 -51 178 -59 205 -7 28 -48 172 -92 320
-120 404 -118 395 -101 405 11 7 10 10 -4 16 -12 4 -16 13 -12 25 4 11 2 19
-3 19 -5 0 -13 15 -17 33 -12 49 -12 51 -3 63 11 16 13 125 1 132 -6 4 -14 18
-18 31 -7 22 -9 23 -20 8 -15 -21 -29 -22 -22 -2 7 17 -1 23 -26 17z m7803
-4611 c0 -4 -13 -8 -30 -7 -39 1 -39 16 0 16 17 0 30 -4 30 -9z m753 -76 c19
-8 37 -21 40 -30 4 -8 5 -15 3 -15 -10 0 -70 29 -61 30 6 0 1 7 -9 15 -25 19
-18 19 27 0z"/>
<path d="M1798 3153 c7 -3 16 -2 19 1 4 3 -2 6 -13 5 -11 0 -14 -3 -6 -6z"/>
<path d="M1811 3124 c0 -11 3 -14 6 -6 3 7 2 16 -1 19 -3 4 -6 -2 -5 -13z"/>
<path d="M3458 3015 c2 -14 6 -25 8 -25 2 0 4 11 4 25 0 14 -4 25 -9 25 -4 0
-6 -11 -3 -25z"/>
</g>
</svg>
